<svg preserveAspectRatio="none" width="100%" height="100%" overflow="visible" style="display: block;" viewBox="0 0 24 24" fill="none" xmlns="http://www.w3.org/2000/svg">
<g id="uil:arrow-down">
<path id="Vector" d="M7.46193 8.46527C7.46139 8.59728 7.487 8.72809 7.53726 8.85016C7.58753 8.97222 7.66147 9.08313 7.75482 9.17648C7.84817 9.26982 7.95907 9.34376 8.08114 9.39403C8.2032 9.4443 8.33401 9.4699 8.46603 9.46936L13.1259 9.46229L7.75892 14.8292C7.57138 15.0168 7.46603 15.2711 7.46603 15.5363C7.46603 15.8016 7.57138 16.0559 7.75892 16.2434C7.94646 16.431 8.20081 16.5363 8.46603 16.5363C8.73124 16.5363 8.9856 16.431 9.17313 16.2434L14.5401 10.8765L14.533 15.5363C14.533 15.8026 14.6388 16.058 14.8271 16.2463C15.0154 16.4346 15.2708 16.5404 15.5371 16.5404C15.8034 16.5404 16.0588 16.4346 16.2471 16.2463C16.4354 16.058 16.5412 15.8026 16.5412 15.5363L16.5412 8.46527C16.5383 8.33365 16.5095 8.20388 16.4563 8.08343C16.4091 7.96138 16.3369 7.85054 16.2444 7.758C16.1518 7.66546 16.041 7.59326 15.9189 7.54603C15.7985 7.49289 15.6687 7.46405 15.5371 7.46118L8.46603 7.46118C8.33402 7.46064 8.2032 7.48624 8.08114 7.53651C7.95907 7.58677 7.84817 7.66072 7.75482 7.75406C7.66147 7.84741 7.58753 7.95831 7.53726 8.08038C7.48699 8.20245 7.46139 8.33326 7.46193 8.46527Z" fill="var(--fill-0, #0D52FD)"/>
</g>
</svg>
