<svg preserveAspectRatio="none" width="100%" height="100%" overflow="visible" style="display: block;" viewBox="0 0 39.5666 39.6279" fill="none" xmlns="http://www.w3.org/2000/svg">
<g id="Group">
<path id="Vector" d="M2.24764 37.3222L14.9756 24.5942M31.0036 18.9342L27.1936 30.3642C27.1328 30.5474 27.0287 30.7133 26.8902 30.8477C26.7516 30.9821 26.5826 31.081 26.3976 31.1362L3.04164 38.0782C2.83122 38.1407 2.6077 38.1443 2.39538 38.0886C2.18307 38.0328 1.99011 37.92 1.8375 37.7622C1.68488 37.6044 1.57847 37.4078 1.52983 37.1938C1.48119 36.9797 1.4922 36.7564 1.56164 36.5482L9.14564 13.8002C9.2 13.6369 9.28886 13.4871 9.40619 13.3612C9.52352 13.2352 9.66657 13.136 9.82564 13.0702L20.5996 8.63421C20.8187 8.54374 21.0596 8.52016 21.292 8.56643C21.5244 8.6127 21.738 8.72675 21.9056 8.89421L30.7136 17.7062C30.8712 17.8638 30.9819 18.0621 31.0331 18.279C31.0843 18.4959 31.0741 18.7228 31.0036 18.9342Z" stroke="var(--stroke-0, white)" stroke-width="3" stroke-linecap="round" stroke-linejoin="round"/>
<path id="Vector_2" d="M31.2394 18.2301L36.8954 12.5721C37.6453 11.822 38.0666 10.8048 38.0666 9.74415C38.0666 8.68349 37.6453 7.66626 36.8954 6.91615L32.6554 2.67215C32.284 2.30054 31.843 2.00576 31.3576 1.80464C30.8721 1.60352 30.3519 1.5 29.8264 1.5C29.301 1.5 28.7807 1.60352 28.2953 1.80464C27.8099 2.00576 27.3689 2.30054 26.9974 2.67215L21.3414 8.33015M19.2174 20.3501C18.9388 20.0716 18.608 19.8507 18.2439 19.7C17.8799 19.5493 17.4897 19.4718 17.0957 19.4719C16.7017 19.472 16.3116 19.5497 15.9476 19.7005C15.5837 19.8514 15.253 20.0725 14.9744 20.3511C14.6959 20.6298 14.475 20.9606 14.3243 21.3246C14.1736 21.6887 14.0961 22.0789 14.0962 22.4729C14.0963 22.8669 14.174 23.257 14.3248 23.6209C14.4757 23.9849 14.6968 24.3156 14.9754 24.5941C15.5382 25.1567 16.3014 25.4726 17.0972 25.4724C17.8929 25.4722 18.6559 25.1559 19.2184 24.5931C19.781 24.0304 20.0969 23.2672 20.0967 22.4714C20.0965 21.6757 19.7802 20.9127 19.2174 20.3501Z" stroke="var(--stroke-0, white)" stroke-width="3" stroke-linecap="round" stroke-linejoin="round"/>
</g>
</svg>
