<svg preserveAspectRatio="none" width="100%" height="100%" overflow="visible" style="display: block;" viewBox="0 0 48 48" fill="none" xmlns="http://www.w3.org/2000/svg">
<g id="hugeicons:strategy">
<path id="Union" d="M34.5254 8.64844C35.2718 7.83437 36.5374 7.77916 37.3516 8.52539L42.0439 12.8281C42.437 13.1888 42.8859 13.5944 43.2109 13.9854C43.5678 14.4146 44 15.0837 44 16C44 16.9163 43.5678 17.5854 43.2109 18.0146C43.0485 18.2101 42.8551 18.4092 42.6533 18.6045L42.0439 19.1719L37.3516 23.4746C36.5374 24.2208 35.2718 24.1656 34.5254 23.3516C33.7792 22.5374 33.8344 21.2718 34.6484 20.5254L37.2197 18.167C22.9888 19.1986 15.8238 24.8242 12.1445 30.1387C10.0714 33.1332 9.03179 36.1341 8.51172 38.3877C8.25223 39.5122 8.1236 40.4426 8.06055 41.0801C8.02911 41.398 8.01412 41.6421 8.00684 41.7998C8.00321 41.8784 8.00174 41.9358 8.00098 41.9697C8.0006 41.9864 8.00006 41.9978 8 42.0029C7.99999 42.0042 8 42.0054 8 42.0059L7.98926 42.2041C7.88699 43.2128 7.03565 44 6 44C4.89544 44 4.00001 43.1046 4 42H6C4.03707 42 4.00067 41.9986 4 41.9971V41.959C4.00022 41.9391 4.00124 41.913 4.00195 41.8809C4.00339 41.8164 4.00561 41.7276 4.01074 41.6162C4.02104 41.3932 4.04126 41.078 4.08008 40.6855C4.15766 39.9013 4.31038 38.7999 4.61328 37.4873C5.21823 34.866 6.42874 31.3666 8.85547 27.8613C13.3752 21.3329 21.8742 15.1245 37.5527 14.1367L34.6484 11.4746C33.8344 10.7282 33.7792 9.4626 34.5254 8.64844ZM34.5859 30.5859C35.367 29.8049 36.633 29.8049 37.4141 30.5859C38.1951 31.367 38.1951 32.633 37.4141 33.4141L33.8281 37L37.4141 40.5859C38.1951 41.367 38.1951 42.633 37.4141 43.4141C36.633 44.1951 35.367 44.1951 34.5859 43.4141L31 39.8281L27.4141 43.4141C26.633 44.1951 25.367 44.1951 24.5859 43.4141C23.8049 42.633 23.805 41.367 24.5859 40.5859L28.1719 37L24.5859 33.4141C23.8049 32.633 23.805 31.367 24.5859 30.5859C25.367 29.8049 26.633 29.8049 27.4141 30.5859L31 34.1719L34.5859 30.5859ZM11 4C14.866 4 18 7.13401 18 11C18 14.866 14.866 18 11 18C7.13401 18 4 14.866 4 11C4 7.13401 7.13401 4 11 4ZM11 8C9.34315 8 8 9.34315 8 11C8 12.6569 9.34315 14 11 14C12.6569 14 14 12.6569 14 11C14 9.34315 12.6569 8 11 8Z" fill="var(--fill-0, white)"/>
</g>
</svg>
