<svg preserveAspectRatio="none" width="100%" height="100%" overflow="visible" style="display: block;" viewBox="0 0 348.512 361.248" fill="none" xmlns="http://www.w3.org/2000/svg">
<g id="PORT FOLIO 2026">
<path id="Union" d="M107.497 140C113.577 140 119.163 141.026 124.255 143.078C129.423 145.054 133.907 147.904 137.707 151.628C141.583 155.276 144.547 159.57 146.599 164.51C148.727 169.45 149.791 174.884 149.791 180.812C149.791 186.74 148.727 192.174 146.599 197.114C144.547 202.054 141.583 206.386 137.707 210.11C133.907 213.758 129.423 216.608 124.255 218.66C119.163 220.636 113.577 221.624 107.497 221.624C101.417 221.624 95.7547 220.598 90.5107 218.546C85.3428 216.494 80.8586 213.644 77.0586 209.996C73.2587 206.272 70.295 201.94 68.167 197C66.039 192.06 64.9746 186.664 64.9746 180.812C64.9747 174.96 66.039 169.564 68.167 164.624C70.295 159.684 73.2587 155.39 77.0586 151.742C80.8586 148.018 85.3427 145.13 90.5107 143.078C95.6787 141.026 101.341 140 107.497 140ZM306.218 140C312.298 140 317.884 141.026 322.976 143.078C328.143 145.054 332.628 147.904 336.428 151.628C340.304 155.276 343.267 159.57 345.319 164.51C347.447 169.45 348.512 174.884 348.512 180.812C348.512 186.74 347.447 192.174 345.319 197.114C343.267 202.054 340.304 206.386 336.428 210.11C332.628 213.758 328.144 216.608 322.976 218.66C317.884 220.636 312.298 221.624 306.218 221.624C300.138 221.624 294.475 220.598 289.231 218.546C284.063 216.494 279.579 213.644 275.779 209.996C271.979 206.272 269.016 201.94 266.888 197C264.76 192.06 263.695 186.664 263.695 180.812C263.695 174.96 264.76 169.564 266.888 164.624C269.016 159.684 271.979 155.39 275.779 151.742C279.579 148.018 284.063 145.13 289.231 143.078C294.399 141.026 300.062 140 306.218 140ZM56.3164 150.83H11.4004V178.646H51.4141V188.45H11.4004V220.712H0V140.912H56.3164V150.83ZM178.615 210.794H221.821V220.712H167.215V140.912H178.615V210.794ZM246.303 220.712H234.902V140.912H246.303V220.712ZM107.497 150.146C103.013 150.146 98.8703 150.906 95.0703 152.426C91.3464 153.946 88.0785 156.112 85.2666 158.924C82.4546 161.66 80.2503 164.89 78.6543 168.614C77.1345 172.338 76.375 176.404 76.375 180.812C76.375 185.219 77.1344 189.286 78.6543 193.01C80.2503 196.734 82.4547 200.002 85.2666 202.813C88.0786 205.549 91.3464 207.678 95.0703 209.198C98.8703 210.718 103.013 211.478 107.497 211.478C111.905 211.477 115.971 210.718 119.694 209.198C123.494 207.678 126.763 205.549 129.499 202.813C132.311 200.002 134.477 196.734 135.997 193.01C137.593 189.286 138.391 185.219 138.391 180.812C138.391 176.404 137.593 172.338 135.997 168.614C134.477 164.89 132.311 161.66 129.499 158.924C126.763 156.112 123.494 153.946 119.694 152.426C115.971 150.906 111.905 150.146 107.497 150.146ZM306.218 150.146C301.734 150.146 297.591 150.906 293.791 152.426C290.067 153.946 286.799 156.112 283.987 158.924C281.175 161.66 278.971 164.89 277.375 168.614C275.855 172.338 275.096 176.404 275.096 180.812C275.096 185.219 275.855 189.286 277.375 193.01C278.971 196.734 281.175 200.002 283.987 202.813C286.799 205.549 290.067 207.678 293.791 209.198C297.591 210.718 301.734 211.478 306.218 211.478C310.625 211.477 314.691 210.718 318.415 209.198C322.215 207.678 325.484 205.549 328.22 202.813C331.032 200.002 333.198 196.734 334.718 193.01C336.314 189.286 337.111 185.219 337.111 180.812C337.111 176.404 336.314 172.338 334.718 168.614C333.198 164.89 331.032 161.66 328.22 158.924C325.484 156.112 322.215 153.946 318.415 152.426C314.691 150.906 310.626 150.146 306.218 150.146ZM118.296 0C124.376 5.14971e-05 129.962 1.02618 135.054 3.07812C140.222 5.05412 144.706 7.904 148.506 11.6279C152.382 15.2758 155.345 19.5699 157.397 24.5098C159.525 29.4496 160.59 34.8837 160.59 40.8115C160.59 46.7395 159.525 52.1743 157.397 57.1143C155.345 62.0542 152.382 66.3864 148.506 70.1104C144.706 73.7583 140.222 76.6082 135.054 78.6602C129.962 80.6361 124.376 81.624 118.296 81.624C112.216 81.624 106.554 80.5979 101.31 78.5459C96.1416 76.4939 91.6574 73.6441 87.8574 69.9961C84.0575 66.2721 81.0938 61.9399 78.9658 57C76.8378 52.06 75.7734 46.6635 75.7734 40.8115C75.7735 34.9597 76.8379 29.5639 78.9658 24.624C81.0938 19.6841 84.0575 15.3901 87.8574 11.7422C91.6574 8.01819 96.1416 5.13013 101.31 3.07812C106.478 1.02615 112.14 0 118.296 0ZM31.1221 0.912109C38.1138 0.912117 44.0796 2.0139 49.0195 4.21777C53.9595 6.42177 57.7599 9.61395 60.4199 13.7939C63.0799 17.9739 64.4101 22.9517 64.4102 28.7275C64.4102 34.5035 63.0799 39.4821 60.4199 43.6621C57.7599 47.766 53.9594 50.9583 49.0195 53.2383C44.0797 55.4421 38.1138 56.5439 31.1221 56.5439H11.4004V80.7119H0V0.912109H31.1221ZM209.136 0.912109C219.472 0.912122 227.603 3.38231 233.531 8.32227C239.459 13.1862 242.424 19.9877 242.424 28.7275C242.424 34.5035 241.094 39.4821 238.434 43.6621C235.774 47.766 231.973 50.9201 227.033 53.124C226.33 53.4379 225.605 53.7279 224.859 53.9971L243.792 80.7119H231.365L214.203 56.2217C212.579 56.3603 210.889 56.4297 209.136 56.4297H189.414V80.7119H178.014V0.912109H209.136ZM314.221 10.8301H286.86V80.7119H275.574V10.8301H248.215V0.912109H314.221V10.8301ZM118.296 10.1465C113.812 10.1465 109.669 10.9058 105.869 12.4258C102.145 13.9458 98.8774 16.1119 96.0654 18.9238C93.2534 21.6598 91.0491 24.8903 89.4531 28.6143C87.9333 32.338 87.1739 36.4038 87.1738 40.8115C87.1738 45.2194 87.9332 49.2858 89.4531 53.0098C91.0491 56.7338 93.2534 60.0025 96.0654 62.8145C98.8773 65.5503 102.145 67.6783 105.869 69.1982C109.669 70.7182 113.812 71.4775 118.296 71.4775C122.704 71.4775 126.769 70.7181 130.493 69.1982C134.293 67.6782 137.562 65.5504 140.298 62.8145C143.11 60.0025 145.276 56.7338 146.796 53.0098C148.392 49.2859 149.189 45.2194 149.189 40.8115C149.189 36.4039 148.392 32.338 146.796 28.6143C145.276 24.8903 143.11 21.6598 140.298 18.9238C137.562 16.1118 134.293 13.9458 130.493 12.4258C126.769 10.9059 122.704 10.1465 118.296 10.1465ZM189.414 46.7402H208.794C216.09 46.7402 221.599 45.1814 225.323 42.0654C229.123 38.8734 231.023 34.4275 231.023 28.7275C231.023 23.0277 229.123 18.6198 225.323 15.5039C221.599 12.3881 216.09 10.8301 208.794 10.8301H189.414V46.7402ZM11.4004 46.626H30.7803C38.0759 46.6259 43.5856 45.0679 47.3096 41.9521C51.1096 38.8361 53.0098 34.4275 53.0098 28.7275C53.0097 23.0277 51.1095 18.6198 47.3096 15.5039C43.5856 12.3881 38.076 10.8301 30.7803 10.8301H11.4004V46.626Z" fill="var(--fill-0, black)"/>
<path id="Union_2" d="M101.83 279.624C107.986 279.624 113.534 281.22 118.474 284.412C123.414 287.604 127.29 292.24 130.102 298.32C132.913 304.4 134.319 311.772 134.319 320.436C134.319 329.099 132.914 336.472 130.102 342.552C127.29 348.632 123.414 353.268 118.474 356.46C113.534 359.652 107.986 361.248 101.83 361.248C95.5981 361.248 90.0113 359.652 85.0713 356.46C80.2074 353.268 76.3313 348.632 73.4434 342.552C70.6314 336.472 69.2256 329.099 69.2256 320.436C69.2256 311.772 70.6315 304.4 73.4434 298.32C76.3313 292.24 80.2074 287.604 85.0713 284.412C90.0113 281.22 95.5981 279.624 101.83 279.624ZM248.347 279.624C252.147 279.624 255.757 280.004 259.177 280.764C262.673 281.524 265.675 282.702 268.183 284.298L263.851 293.189C261.799 291.745 259.442 290.758 256.782 290.226C254.198 289.694 251.462 289.428 248.574 289.428C240.442 289.428 233.982 291.974 229.194 297.066C224.407 302.082 222.013 309.568 222.013 319.523C222.013 320.399 222.036 321.366 222.082 322.425C222.889 321.2 223.816 320.082 224.862 319.068C227.37 316.636 230.334 314.85 233.754 313.71C237.25 312.494 241.012 311.886 245.04 311.886C250.36 311.886 255.073 312.874 259.177 314.85C263.281 316.826 266.51 319.638 268.866 323.286C271.222 326.858 272.4 331.114 272.4 336.054C272.4 341.146 271.147 345.592 268.639 349.392C266.131 353.192 262.748 356.118 258.492 358.17C254.236 360.222 249.448 361.248 244.128 361.248C237.06 361.248 231.018 359.69 226.002 356.574C220.986 353.458 217.148 348.974 214.488 343.122C211.904 337.194 210.612 329.974 210.612 321.462C210.612 312.418 212.208 304.78 215.4 298.548C218.592 292.316 223.038 287.604 228.738 284.412C234.438 281.22 240.975 279.624 248.347 279.624ZM29.1836 279.624C34.7316 279.624 39.5581 280.536 43.6621 282.36C47.766 284.108 50.9201 286.654 53.124 289.998C55.4039 293.342 56.5439 297.294 56.5439 301.854C56.5439 304.438 56.2016 306.984 55.5176 309.492C54.8335 312 53.5415 314.66 51.6416 317.472C49.7416 320.284 47.0056 323.438 43.4336 326.934L19.0869 350.418H59.9639V360.336H2.62207V352.584L35.1123 321.234C38.0003 318.498 40.1281 316.104 41.4961 314.052C42.9399 311.924 43.8897 309.986 44.3457 308.238C44.8777 306.414 45.1435 304.666 45.1436 302.994C45.1436 298.89 43.6995 295.66 40.8115 293.304C37.9236 290.948 33.7059 289.77 28.1582 289.77C23.9022 289.77 20.0636 290.492 16.6436 291.936C13.2237 293.304 10.2599 295.47 7.75195 298.434L0 291.708C3.04 287.832 7.10624 284.868 12.1982 282.816C17.3661 280.688 23.0278 279.624 29.1836 279.624ZM170.57 279.624C176.118 279.624 180.945 280.536 185.049 282.36C189.153 284.108 192.307 286.654 194.511 289.998C196.791 293.342 197.931 297.294 197.931 301.854C197.931 304.438 197.588 306.984 196.904 309.492C196.22 312 194.928 314.66 193.028 317.472C191.128 320.284 188.392 323.438 184.82 326.934L160.474 350.418H201.351V360.336H144.009V352.584L176.499 321.234C179.387 318.498 181.515 316.104 182.883 314.052C184.327 311.924 185.276 309.986 185.732 308.238C186.264 306.414 186.53 304.666 186.53 302.994C186.53 298.89 185.087 295.66 182.199 293.304C179.311 290.948 175.093 289.77 169.545 289.77C165.289 289.77 161.45 290.492 158.03 291.936C154.61 293.304 151.647 295.47 149.139 298.434L141.387 291.708C144.427 287.832 148.493 284.868 153.585 282.816C158.753 280.688 164.414 279.624 170.57 279.624ZM243.103 321.12C239.455 321.12 236.262 321.804 233.526 323.172C230.79 324.54 228.624 326.402 227.028 328.758C225.508 331.038 224.748 333.66 224.748 336.624C224.748 339.36 225.47 341.906 226.914 344.262C228.358 346.542 230.486 348.404 233.298 349.848C236.11 351.292 239.568 352.014 243.672 352.014C247.168 352.014 250.208 351.368 252.792 350.076C255.452 348.784 257.542 346.998 259.062 344.718C260.582 342.362 261.343 339.626 261.343 336.51C261.343 331.798 259.708 328.074 256.44 325.338C253.172 322.526 248.726 321.12 243.103 321.12ZM101.83 289.77C97.6501 289.77 93.9635 290.91 90.7715 293.189C87.5795 295.469 85.072 298.89 83.248 303.45C81.5001 308.01 80.626 313.672 80.626 320.436C80.626 327.2 81.5 332.862 83.248 337.422C85.072 341.982 87.5796 345.402 90.7715 347.682C93.9635 349.962 97.6501 351.102 101.83 351.102C106.01 351.101 109.658 349.962 112.773 347.682C115.965 345.402 118.436 341.982 120.184 337.422C122.008 332.862 122.92 327.2 122.92 320.436C122.92 313.672 122.007 308.01 120.184 303.45C118.436 298.89 115.965 295.469 112.773 293.189C109.658 290.91 106.01 289.77 101.83 289.77Z" fill="var(--fill-0, #0D52FD)"/>
</g>
</svg>
