<svg preserveAspectRatio="none" width="100%" height="100%" overflow="visible" style="display: block;" viewBox="0 0 32 32" fill="none" xmlns="http://www.w3.org/2000/svg">
<g id="file-icons:blender" clip-path="url(#clip0_0_42)">
<path id="Vector" d="M28.0938 11.0808L18.0688 3.38156C17.4122 2.87738 16.3089 2.87963 15.5879 3.38425C14.8578 3.89413 14.7736 4.73938 15.4224 5.27238L19.5916 8.66525H6.86212C5.81131 8.66569 4.80119 9.36931 4.60187 10.2411C4.39581 11.1288 5.10906 11.8566 6.20162 11.86H12.6441L1.102 20.7191C0.0173125 21.5491 -0.33275 22.9308 0.350437 23.8044C1.04325 24.6936 2.51806 24.6954 3.614 23.8094L9.88931 18.674C9.88931 18.674 9.79725 19.3668 9.80456 19.7829C9.99325 23.2956 12.6713 26.552 15.9873 27.9942C21.701 30.5249 29.4153 28.2082 31.5846 21.6127C32.6162 18.1531 31.8253 14.039 28.0937 11.0809M17.4664 23.3443C12.9538 20.9823 12.9537 15.0451 17.4664 12.6831C21.9792 10.321 27.6507 13.2896 27.6507 18.0137C27.6507 22.7377 21.9792 25.7064 17.4664 23.3443ZM18.8408 21.2187C15.9623 19.7133 15.9623 15.9291 18.8408 14.4237C21.7192 12.9183 25.3367 14.8103 25.3367 17.8212C25.3367 20.8321 21.7191 22.7242 18.8408 21.2187Z" fill="var(--fill-0, #A3A3A4)"/>
</g>
<defs>
<clipPath id="clip0_0_42">
<rect width="32" height="32" fill="white"/>
</clipPath>
</defs>
</svg>
