<svg preserveAspectRatio="none" width="100%" height="100%" overflow="visible" style="display: block;" viewBox="0 0 32 32" fill="none" xmlns="http://www.w3.org/2000/svg">
<g id="ri:figma-fill">
<path id="Vector" d="M7.11084 7.11075C7.11084 5.93213 7.57905 4.80178 8.41246 3.96837C9.24587 3.13495 10.3762 2.66675 11.5548 2.66675H20.4442C21.623 2.66675 22.7535 3.13502 23.587 3.96856C24.4206 4.8021 24.8888 5.93262 24.8888 7.11141C24.8888 8.29021 24.4206 9.42073 23.587 10.2543C22.7535 11.0878 21.623 11.5561 20.4442 11.5561H16.0002V24.8894C15.9999 25.7682 15.7391 26.6273 15.2507 27.3579C14.7623 28.0885 14.0682 28.6579 13.2562 28.9941C12.4442 29.3302 11.5508 29.4181 10.6889 29.2466C9.82694 29.0751 9.03521 28.6519 8.41379 28.0305C7.79237 27.409 7.36914 26.6173 7.19763 25.7554C7.02611 24.8935 7.11401 24 7.4502 23.1881C7.78639 22.3761 8.35578 21.682 9.08639 21.1936C9.817 20.7052 10.676 20.4443 11.5548 20.4441C10.3762 20.4441 9.24587 19.9759 8.41246 19.1425C7.57905 18.3091 7.11084 17.1787 7.11084 16.0001C7.11084 14.8215 7.57905 13.6911 8.41246 12.8577C9.24587 12.0243 10.3762 11.5561 11.5548 11.5561C10.9711 11.5561 10.3931 11.4411 9.85389 11.2177C9.31463 10.9943 8.82467 10.6668 8.41199 10.254C7.9993 9.84119 7.67199 9.35113 7.44874 8.8118C7.22548 8.27248 7.11066 7.69446 7.11084 7.11075ZM16.0002 16.0001C16.0002 17.1787 16.4684 18.3091 17.3018 19.1425C18.1352 19.9759 19.2656 20.4441 20.4442 20.4441C21.6228 20.4441 22.7531 19.9759 23.5866 19.1425C24.42 18.3091 24.8882 17.1787 24.8882 16.0001C24.8882 14.8215 24.42 13.6911 23.5866 12.8577C22.7531 12.0243 21.6228 11.5561 20.4442 11.5561C19.2656 11.5561 18.1352 12.0243 17.3018 12.8577C16.4684 13.6911 16.0002 14.8215 16.0002 16.0001Z" fill="var(--fill-0, #A3A3A4)"/>
</g>
</svg>
